# xmcd
#
# Track frame offsets:
#	150
#	18125
#	35515
#	62781
#	78119
#	97282
#	113838
#	128165
#	143056
#	161934
#	180635
#	197938
#	213321
#	235376
#	255706
#	272142
#	291074
#
# Disc length: 4105 seconds
#
# Revision: 0
# Processed by: cddbd v1.5.2PL0 Copyright (c) Steve Scherf et al.
# Submitted via: audiograbber 1.83.01
#
DISCID=fb100711
DTITLE=Chartbuster Karaoke - 2009 Country Hits 2 Disc 1
DYEAR=1900
DGENRE=Karaoke
TTITLE0=Boy Like Me - Jessica Harp
TTITLE1=Keith Urban - Only You Can Love Me this Way
TTITLE2=Brad Paisley - Welcome To The Future
TTITLE3=Josh Turner - Why Don't We Just Dance
TTITLE4=Rascal Flatts - Summer Nights
TTITLE5=Kellie Pickler - Didn't Know How Much I Loved You
TTITLE6=Tracy Lawrence - Up To Him
TTITLE7=Jake Owen - Eight Second Ride
TTITLE8=Luke Bryan - Do I
TTITLE9=Lady Antebellum - Need You Now
TTITLE10=Pat Green - What I'm For
TTITLE11=Tim McGraw - It's A Business Doing Pleasure For You
TTITLE12=Jamey Johnson - High Cost Of Living
TTITLE13=Zac Brown Band - Toes
TTITLE14=Heidi Newfield - What Am I Waiting For
TTITLE15=Dierks Bentley - I Wanna Make You Close Your Eyes
TTITLE16=Chris Young - Getting You Home (The Black Dress Song)
EXTD=
EXTT0=
EXTT1=
EXTT2=
EXTT3=
EXTT4=
EXTT5=
EXTT6=
EXTT7=
EXTT8=
EXTT9=
EXTT10=
EXTT11=
EXTT12=
EXTT13=
EXTT14=
EXTT15=
EXTT16=
PLAYORDER=
